<svg viewBox="0 0 48 48" fill="none" xmlns="http://www.w3.org/2000/svg">
<g clip-path="url(#clip0_19_32)">
<path d="M23.1724 24.2162H24.8276V48H23.1724V24.2162Z" fill="#969696"/>
<path d="M23.1724 25.946V24.2162L48 24.2162V25.946L23.1724 25.946Z" fill="#969696"/>
<path d="M0 48L0 46.2703L24.8276 46.2703V48L0 48Z" fill="#969696"/>
<path d="M46.3448 0H48V25.946H46.3448V0Z" fill="#969696"/>
<path d="M4.5966 39.4157C4.6406 39.2942 4.6626 39.1776 4.6626 39.0659C4.6626 38.9542 4.63589 38.8475 4.58246 38.7456C4.53217 38.6438 4.4646 38.5568 4.37974 38.4845C4.29488 38.409 4.19745 38.3466 4.08744 38.2973C3.97744 38.2447 3.86429 38.2004 3.748 38.1643C3.63171 38.1281 3.517 38.0986 3.40385 38.0756C3.2907 38.0493 3.17913 38.023 3.06912 37.9968C2.96226 37.9705 2.83969 37.9426 2.7014 37.913C2.56625 37.8834 2.42953 37.8506 2.29124 37.8145C2.15609 37.7751 2.02409 37.7274 1.89523 37.6716C1.76951 37.6158 1.65479 37.5484 1.55107 37.4696C1.32478 37.3021 1.18492 37.082 1.13149 36.8094C1.05291 36.9868 1.01363 37.1625 1.01363 37.3366C1.01363 37.5106 1.04191 37.6568 1.09849 37.7751C1.1582 37.8933 1.23521 37.9968 1.3295 38.0854C1.42693 38.1741 1.53693 38.2497 1.65951 38.3121C1.78208 38.3712 1.90937 38.4221 2.04138 38.4648C2.27395 38.5338 2.47668 38.5781 2.64954 38.5978C2.82554 38.6175 2.97012 38.6372 3.08327 38.657C3.19956 38.6734 3.32056 38.6964 3.44628 38.7259C3.572 38.7555 3.69772 38.7916 3.82343 38.8343C3.94915 38.8737 4.06544 38.9214 4.1723 38.9772C4.40802 39.102 4.54946 39.2482 4.5966 39.4157ZM4.05444 36.5187C3.649 36.1837 3.13041 36.0162 2.49868 36.0162C2.11838 36.0162 1.84808 36.1246 1.68779 36.3414C1.63122 36.4202 1.60293 36.5138 1.60293 36.6222C1.60293 36.7306 1.63436 36.8242 1.69722 36.903C1.76008 36.9786 1.84023 37.0459 1.93766 37.105C2.03509 37.1641 2.14352 37.215 2.26295 37.2577C2.38553 37.3004 2.50496 37.3366 2.62125 37.3661C2.74068 37.3957 2.85069 37.4203 2.95126 37.44C3.05498 37.4597 3.17598 37.4844 3.31427 37.5139C3.45571 37.5435 3.64114 37.596 3.87058 37.6716C4.10316 37.7439 4.31531 37.8407 4.50703 37.9623C4.94076 38.2447 5.15762 38.6241 5.15762 39.1004C5.15762 39.6259 4.91876 40.048 4.44103 40.3666C4.01358 40.6523 3.55314 40.7952 3.05969 40.7952C2.2331 40.7952 1.5385 40.5439 0.975912 40.0414V40.2089C0.975912 40.2615 0.979055 40.3124 0.985341 40.3616V40.3813C0.985341 40.447 0.96334 40.5062 0.919339 40.5587C0.87848 40.6113 0.823479 40.6375 0.754333 40.6375C0.688331 40.6375 0.628615 40.6145 0.575185 40.5686C0.524897 40.5259 0.496611 40.4717 0.490325 40.406C0.484039 40.3403 0.480896 40.2746 0.480896 40.2089V40.002C0.480896 39.7392 0.488753 39.5076 0.504468 39.3073C0.520183 39.1037 0.529612 38.9838 0.532755 38.9476C0.539041 38.9115 0.564184 38.8721 0.608186 38.8294C0.65533 38.7834 0.713475 38.7604 0.78262 38.7604C0.854908 38.7604 0.913053 38.7867 0.957054 38.8392C1.00106 38.8918 1.02306 38.9493 1.02306 39.0117V39.0412C1.01363 39.1299 1.0042 39.235 0.99477 39.3566C1.54164 39.9675 2.22995 40.2729 3.05969 40.2729C3.43056 40.2729 3.73072 40.2089 3.96015 40.0808C4.11416 39.9954 4.19116 39.887 4.19116 39.7556C4.19116 39.4797 3.76843 39.2777 2.92298 39.1496C2.83812 39.1365 2.71711 39.1217 2.55996 39.1053C2.40596 39.0856 2.19695 39.0363 1.93294 38.9575C1.67208 38.8754 1.43636 38.7637 1.22578 38.6225C0.757476 38.3071 0.523326 37.8884 0.523326 37.3661C0.523326 36.811 0.72919 36.3545 1.14092 35.9965C1.51807 35.6647 1.97066 35.4989 2.49868 35.4989C3.1807 35.4989 3.76057 35.6713 4.2383 36.0162C4.35774 35.7074 4.45988 35.5317 4.54474 35.489C4.5856 35.4693 4.63275 35.4595 4.68618 35.4595C4.74275 35.4595 4.79461 35.4857 4.84175 35.5383C4.8889 35.5875 4.91247 35.6417 4.91247 35.7009C4.91247 35.76 4.87633 35.8536 4.80404 35.9817C4.5966 36.3528 4.46617 36.7634 4.41274 37.2134C4.40331 37.2758 4.37502 37.3284 4.32788 37.3711C4.28073 37.4138 4.22416 37.4351 4.15816 37.4351C4.09216 37.4351 4.03558 37.4088 3.98844 37.3563C3.94129 37.3004 3.91772 37.2397 3.91772 37.174V37.1346C3.9523 36.9309 3.99787 36.7256 4.05444 36.5187Z" fill="#E74802"/>
<path d="M8.07586 40.2237C7.86214 40.0299 7.75528 39.7868 7.75528 39.4945V33.8435L7.08111 34.0455V38.9082C7.08111 39.6243 7.29169 40.0447 7.71285 40.1695C7.83228 40.2023 7.95328 40.2204 8.07586 40.2237ZM8.25029 35.5284C8.64002 35.5153 9.03132 35.4923 9.42419 35.4595H9.44305C9.51219 35.4595 9.57034 35.4857 9.61748 35.5383C9.66462 35.5875 9.6882 35.645 9.6882 35.7107C9.6882 35.7764 9.6662 35.8355 9.62219 35.8881C9.58134 35.9374 9.52948 35.9653 9.46662 35.9718C8.98575 36.0113 8.5803 36.0359 8.25029 36.0457V39.4945C8.25029 39.6916 8.34615 39.8312 8.53787 39.9133C8.5913 39.9363 8.65259 39.9478 8.72174 39.9478C8.79402 39.9478 8.85688 39.9248 8.91031 39.8788C8.96689 39.8295 9.01403 39.7688 9.05175 39.6965C9.10203 39.6013 9.14289 39.4896 9.17432 39.3615C9.22147 39.1611 9.31104 39.061 9.44305 39.061C9.51533 39.061 9.57348 39.0905 9.61748 39.1496C9.66462 39.2055 9.6882 39.263 9.6882 39.3221V39.3763C9.59705 39.8131 9.4179 40.1514 9.15075 40.3912C8.8836 40.6277 8.55359 40.7459 8.16072 40.7459C7.45041 40.7459 6.97111 40.4421 6.72281 39.8345C6.62538 39.598 6.57667 39.2892 6.57667 38.9082V36.0359C6.43523 36.026 6.29223 36.0162 6.14765 36.0063C6.00622 35.9965 5.88364 35.985 5.77993 35.9718C5.59135 35.9521 5.49706 35.8651 5.49706 35.7107C5.49706 35.6352 5.52377 35.5744 5.57721 35.5284C5.63378 35.4824 5.69035 35.4595 5.74693 35.4595H5.76578L6.57667 35.5186V33.8435C6.57667 33.7876 6.59395 33.7367 6.62853 33.6907C6.6631 33.6415 6.7071 33.6086 6.76053 33.5922L7.93914 33.2621C7.95171 33.2522 7.98314 33.2473 8.03343 33.2473C8.08686 33.2473 8.13557 33.2752 8.17958 33.3311C8.22672 33.3869 8.25029 33.4477 8.25029 33.5134V35.5284Z" fill="#E74802"/>
<path d="M12.0454 36.095C11.2188 36.407 10.8055 37.0623 10.8055 38.0608C10.8055 38.6882 11.013 39.2137 11.4278 39.6374C11.5567 39.7688 11.7044 39.8788 11.871 39.9675C11.6007 39.5471 11.4655 38.9723 11.4655 38.2431C11.4655 37.7274 11.5017 37.3431 11.574 37.0902C11.6871 36.6895 11.8443 36.3578 12.0454 36.095ZM11.9653 38.0312C12.3173 38.1462 12.7212 38.2037 13.1769 38.2037C13.6326 38.2037 14.0758 38.1035 14.5064 37.9032V37.8194C14.5064 37.0245 14.2628 36.476 13.7756 36.1738C13.6059 36.0687 13.4016 35.9981 13.1627 35.962C12.3959 36.054 11.9967 36.7437 11.9653 38.0312ZM14.9967 37.8095L14.9872 38.0953C14.9558 38.3679 14.5409 38.5617 13.7426 38.6767C13.488 38.7128 13.2177 38.7309 12.9317 38.7309C12.6489 38.7309 12.3299 38.6799 11.9747 38.5781C12.0438 39.3237 12.2827 39.8279 12.6913 40.0907C12.8422 40.1859 12.9899 40.2335 13.1345 40.2335C13.2822 40.2335 13.4063 40.2237 13.5069 40.204C13.6075 40.181 13.7065 40.1498 13.8039 40.1104C14.0239 40.0151 14.1779 39.9002 14.2659 39.7655C14.3193 39.6998 14.3806 39.6669 14.4498 39.6669C14.5221 39.6669 14.5834 39.6949 14.6336 39.7507C14.6839 39.8033 14.7091 39.864 14.7091 39.933C14.7091 39.9987 14.6886 40.0512 14.6478 40.0907C14.5126 40.3107 14.2612 40.4848 13.8935 40.6129C13.2115 40.8461 12.5561 40.8264 11.9276 40.5538C11.2675 40.2713 10.7992 39.795 10.5227 39.125C10.3844 38.7965 10.3152 38.4336 10.3152 38.0362C10.3152 37.6355 10.3749 37.2725 10.4944 36.9473C10.6138 36.6189 10.7835 36.343 11.0035 36.1196C11.453 35.6598 12.0737 35.4299 12.8657 35.4299C14.2863 35.4923 14.9967 36.2855 14.9967 37.8095Z" fill="#E74802"/>
<path d="M17.1182 42.5442L17.4246 42.5541L17.434 36.1049C17.2297 36.1246 17.0239 36.1344 16.8164 36.1344H16.741V42.5541L17.1182 42.5442ZM20.8143 38.9181C20.8708 38.7407 20.9117 38.5617 20.9368 38.3811C20.9651 38.1971 20.9777 38.0083 20.9746 37.8145C20.9746 37.6174 20.9431 37.4088 20.8803 37.1888C20.8174 36.9654 20.7247 36.7667 20.6021 36.5926C20.3318 36.2018 19.9845 36.0063 19.5602 36.0063C19.2491 36.0063 18.9584 36.1443 18.6881 36.4202C18.3361 36.7848 18.1003 37.2692 17.9809 37.8736C17.9463 38.0477 17.929 38.2086 17.929 38.3564V39.3566C17.9982 39.639 18.1742 39.864 18.4571 40.0315C18.6991 40.1728 18.9489 40.2434 19.2067 40.2434C19.4644 40.2434 19.675 40.2073 19.8384 40.135C20.005 40.0627 20.1511 39.9658 20.2768 39.8443C20.4025 39.7228 20.5094 39.5832 20.5974 39.4255C20.6854 39.2646 20.7577 39.0954 20.8143 38.9181ZM16.2507 36.1147L15.652 36.0556C15.5891 36.0457 15.5372 36.0162 15.4964 35.9669C15.4555 35.9176 15.4351 35.8569 15.4351 35.7846C15.4351 35.7124 15.4634 35.6532 15.52 35.6073C15.5797 35.5613 15.6362 35.5383 15.6897 35.5383H15.718C15.7211 35.5383 15.7541 35.5432 15.817 35.5531C15.8798 35.5596 15.9631 35.5678 16.0668 35.5777C16.312 35.6073 16.5351 35.622 16.7363 35.622C17.1072 35.622 17.3507 35.6089 17.467 35.5826C17.5865 35.5531 17.6697 35.5383 17.7169 35.5383C17.764 35.5383 17.8112 35.5662 17.8583 35.622C17.9055 35.6779 17.929 35.7386 17.929 35.8043V36.6074C18.1176 36.2625 18.3502 35.9899 18.6268 35.7895C18.9065 35.5892 19.2082 35.489 19.5319 35.489C19.8588 35.489 20.1401 35.5596 20.3758 35.7009C20.6116 35.8421 20.8096 36.026 20.9699 36.2527C21.2904 36.6994 21.4617 37.2347 21.4837 37.8588C21.4837 38.6143 21.2967 39.2761 20.9227 39.8443C20.6713 40.2253 20.3444 40.493 19.9421 40.6474C19.741 40.7262 19.5209 40.7656 19.2821 40.7656C18.7446 40.7656 18.2936 40.6014 17.929 40.2729V42.5935C18.0925 42.6099 18.2229 42.6247 18.3203 42.6378C18.4963 42.6608 18.5843 42.7462 18.5843 42.894C18.5843 42.9794 18.5561 43.0451 18.4995 43.0911C18.4429 43.1371 18.3879 43.1601 18.3345 43.1601H18.3062C17.8662 43.0977 17.4434 43.0664 17.038 43.0664C16.6326 43.0664 16.2208 43.1108 15.8028 43.1995H15.7651C15.6928 43.1995 15.6331 43.1732 15.586 43.1206C15.5388 43.0714 15.5152 43.0139 15.5152 42.9482C15.5152 42.807 15.5828 42.7216 15.718 42.692C15.9065 42.6526 16.0841 42.623 16.2507 42.6033V36.1147Z" fill="#E74802"/>
<path d="M39.5099 18.1153C39.3936 18.0693 39.282 18.0463 39.1752 18.0463C39.0683 18.0463 38.9662 18.0742 38.8687 18.1301C38.7713 18.1826 38.688 18.2532 38.6189 18.3419C38.5466 18.4306 38.4869 18.5324 38.4397 18.6474C38.3894 18.7623 38.347 18.8806 38.3124 19.0021C38.2779 19.1236 38.2496 19.2435 38.2276 19.3618C38.2024 19.48 38.1773 19.5966 38.1521 19.7116C38.127 19.8232 38.1003 19.9513 38.072 20.0959C38.0437 20.2371 38.0123 20.38 37.9777 20.5245C37.94 20.6657 37.8944 20.8037 37.841 20.9383C37.7876 21.0697 37.7231 21.1896 37.6477 21.298C37.4874 21.5345 37.2768 21.6806 37.016 21.7365C37.1857 21.8186 37.3538 21.8597 37.5204 21.8597C37.687 21.8597 37.8268 21.8301 37.94 21.771C38.0531 21.7086 38.1521 21.6281 38.237 21.5296C38.3219 21.4277 38.3941 21.3128 38.4539 21.1847C38.5104 21.0566 38.5592 20.9236 38.6 20.7856C38.666 20.5426 38.7084 20.3307 38.7273 20.1501C38.7462 19.9661 38.765 19.815 38.7839 19.6968C38.7996 19.5753 38.8216 19.4488 38.8499 19.3174C38.8782 19.186 38.9127 19.0547 38.9536 18.9233C38.9913 18.7919 39.0369 18.6704 39.0903 18.5587C39.2097 18.3124 39.3496 18.1646 39.5099 18.1153ZM36.7378 18.6819C36.4172 19.1056 36.2569 19.6475 36.2569 20.3077C36.2569 20.7051 36.3607 20.9876 36.5681 21.1551C36.6435 21.2142 36.7331 21.2438 36.8368 21.2438C36.9405 21.2438 37.0301 21.211 37.1055 21.1453C37.1778 21.0796 37.2423 20.9958 37.2988 20.894C37.3554 20.7922 37.4041 20.6789 37.445 20.5541C37.4858 20.426 37.5204 20.3011 37.5487 20.1796C37.577 20.0548 37.6006 19.9398 37.6194 19.8347C37.6383 19.7263 37.6618 19.5999 37.6901 19.4554C37.7184 19.3076 37.7687 19.1138 37.841 18.874C37.9101 18.631 38.0029 18.4092 38.1191 18.2089C38.3894 17.7556 38.7524 17.529 39.2082 17.529C39.711 17.529 40.1149 17.7786 40.4198 18.2779C40.6932 18.7246 40.8299 19.2057 40.8299 19.7214C40.8299 20.5853 40.5895 21.3111 40.1086 21.8991H40.2689C40.3192 21.8991 40.3679 21.8958 40.4151 21.8892H40.4339C40.4968 21.8892 40.5534 21.9122 40.6036 21.9582C40.6539 22.0009 40.6791 22.0584 40.6791 22.1306C40.6791 22.1996 40.6571 22.262 40.6131 22.3178C40.5722 22.3704 40.5204 22.4 40.4575 22.4065C40.3946 22.4131 40.3318 22.4164 40.2689 22.4164H40.0709C39.8195 22.4164 39.5979 22.4082 39.4062 22.3917C39.2113 22.3753 39.0966 22.3655 39.062 22.3622C39.0275 22.3556 38.9897 22.3293 38.9489 22.2834C38.9049 22.2341 38.8829 22.1733 38.8829 22.1011C38.8829 22.0255 38.908 21.9648 38.9583 21.9188C39.0086 21.8728 39.0636 21.8498 39.1233 21.8498H39.1516C39.2365 21.8597 39.337 21.8695 39.4533 21.8794C40.0379 21.3079 40.3302 20.5885 40.3302 19.7214C40.3302 19.3338 40.2689 19.0202 40.1463 18.7804C40.0646 18.6195 39.9609 18.539 39.8352 18.539C39.5712 18.539 39.3779 18.9808 39.2553 19.8643C39.2427 19.953 39.2286 20.0794 39.2129 20.2437C39.194 20.4046 39.1469 20.623 39.0715 20.8989C38.9929 21.1715 38.886 21.4179 38.7509 21.6379C38.4492 22.1273 38.0484 22.372 37.5487 22.372C37.0175 22.372 36.5807 22.1569 36.2381 21.7266C35.9206 21.3325 35.7619 20.8595 35.7619 20.3077C35.7619 19.595 35.9269 18.989 36.2569 18.4897C35.9615 18.3649 35.7934 18.2582 35.7525 18.1695C35.7336 18.1268 35.7242 18.0775 35.7242 18.0217C35.7242 17.9626 35.7493 17.9084 35.7996 17.8591C35.8468 17.8098 35.8986 17.7852 35.9552 17.7852C36.0118 17.7852 36.1014 17.823 36.2239 17.8985C36.5791 18.1153 36.972 18.2516 37.4025 18.3074C37.4623 18.3173 37.5125 18.3468 37.5534 18.3961C37.5943 18.4454 37.6147 18.5045 37.6147 18.5735C37.6147 18.6425 37.5896 18.7016 37.5393 18.7508C37.4858 18.8001 37.4277 18.8247 37.3648 18.8247H37.3271C37.1323 18.7886 36.9358 18.741 36.7378 18.6819Z" fill="#E74802"/>
<path d="M40.2831 14.4793C40.0976 14.7027 39.8651 14.8143 39.5853 14.8143H34.1779L34.3712 15.5189H39.0243C39.7095 15.5189 40.1118 15.2988 40.2312 14.8587C40.2626 14.7339 40.2799 14.6074 40.2831 14.4793ZM35.7902 14.297C35.7776 13.8897 35.7556 13.4808 35.7242 13.0702V13.0505C35.7242 12.9783 35.7493 12.9175 35.7996 12.8682C35.8468 12.819 35.9018 12.7943 35.9646 12.7943C36.0275 12.7943 36.0841 12.8173 36.1344 12.8633C36.1815 12.906 36.2082 12.9602 36.2145 13.0259C36.2522 13.5284 36.2758 13.9521 36.2852 14.297L39.5853 14.297C39.7739 14.297 39.9075 14.1968 39.9861 13.9965C40.0081 13.9406 40.0191 13.8766 40.0191 13.8043C40.0191 13.7288 39.9971 13.6631 39.9531 13.6073C39.9059 13.5481 39.8478 13.4989 39.7786 13.4595C39.6875 13.4069 39.5806 13.3642 39.458 13.3314C39.2663 13.2821 39.1705 13.1885 39.1705 13.0505C39.1705 12.975 39.1987 12.9142 39.2553 12.8682C39.3088 12.819 39.3638 12.7943 39.4203 12.7943H39.4722C39.8902 12.8896 40.2139 13.0768 40.4434 13.356C40.6697 13.6352 40.7828 13.9801 40.7828 14.3906C40.7828 15.1329 40.4921 15.6338 39.9106 15.8933C39.6843 15.9951 39.3889 16.046 39.0243 16.046H36.2758C36.2664 16.1938 36.2569 16.3433 36.2475 16.4944C36.2381 16.6422 36.2271 16.7703 36.2145 16.8787C36.1956 17.0757 36.1124 17.1743 35.9646 17.1743C35.8924 17.1743 35.8342 17.1463 35.7902 17.0905C35.7462 17.0314 35.7242 16.9723 35.7242 16.9131V16.8934L35.7808 16.046H34.1779C34.1244 16.046 34.0757 16.028 34.0317 15.9918C33.9846 15.9557 33.9531 15.9097 33.9374 15.8539L33.6216 14.6222C33.6121 14.609 33.6074 14.5762 33.6074 14.5236C33.6074 14.4678 33.6341 14.4169 33.6876 14.3709C33.741 14.3216 33.7991 14.297 33.862 14.297H35.7902Z" fill="#E74802"/>
<path d="M36.3324 10.3309C36.6309 11.1948 37.258 11.6267 38.2134 11.6267C38.8137 11.6267 39.3166 11.4099 39.722 10.9763C39.8478 10.8417 39.9531 10.6873 40.0379 10.5132C39.6356 10.7957 39.0856 10.9369 38.3879 10.9369C37.8944 10.9369 37.5267 10.8992 37.2847 10.8236C36.9012 10.7054 36.5838 10.5411 36.3324 10.3309ZM38.1851 10.4147C38.2951 10.0468 38.3501 9.62476 38.3501 9.1485C38.3501 8.67225 38.2543 8.20913 38.0626 7.75915H37.9824C37.2218 7.75915 36.697 8.0137 36.4078 8.5228C36.3072 8.70017 36.2397 8.91366 36.2051 9.16328C36.2931 9.96471 36.9531 10.3818 38.1851 10.4147ZM37.973 7.24676L38.2464 7.25661C38.5073 7.28946 38.6927 7.72302 38.8027 8.55729C38.8373 8.82334 38.8546 9.10581 38.8546 9.4047C38.8546 9.70031 38.8059 10.0337 38.7084 10.4048C39.4219 10.3326 39.9043 10.083 40.1558 9.65596C40.2469 9.49831 40.2925 9.34393 40.2925 9.19285C40.2925 9.03847 40.2831 8.90873 40.2642 8.80363C40.2422 8.69852 40.2124 8.59506 40.1746 8.49324C40.0835 8.26332 39.9735 8.10238 39.8446 8.01041C39.7818 7.95458 39.7503 7.89053 39.7503 7.81827C39.7503 7.74272 39.7771 7.67868 39.8305 7.62612C39.8808 7.57357 39.9389 7.54729 40.0049 7.54729C40.0678 7.54729 40.1181 7.56864 40.1558 7.61134C40.3664 7.75258 40.5329 8.01534 40.6555 8.39963C40.8787 9.11237 40.8598 9.7972 40.5989 10.4541C40.3286 11.1439 39.8729 11.6333 39.2317 11.9223C38.9175 12.0668 38.5702 12.1391 38.1899 12.1391C37.8064 12.1391 37.4591 12.0767 37.148 11.9519C36.8337 11.827 36.5697 11.6497 36.3559 11.4198C35.9159 10.9501 35.6959 10.3014 35.6959 9.47367C35.7556 7.98906 36.5147 7.24676 37.973 7.24676Z" fill="#E74802"/>
<path d="M42.5036 5.0297L42.513 4.70946L36.3418 4.6996C36.3607 4.9131 36.3701 5.12823 36.3701 5.34501V5.42384H42.513L42.5036 5.0297ZM39.0337 1.16709C38.864 1.10796 38.6927 1.06526 38.5199 1.03899C38.3439 1.00943 38.1631 0.996289 37.9777 0.999574C37.7891 0.999574 37.5896 1.03242 37.379 1.09811C37.1653 1.1638 36.9751 1.26069 36.8085 1.38879C36.4345 1.67126 36.2475 2.0342 36.2475 2.47761C36.2475 2.80278 36.3795 3.1066 36.6435 3.38907C36.9924 3.75694 37.456 4.00328 38.0343 4.12809C38.2009 4.16422 38.3549 4.18229 38.4963 4.18229H39.4533C39.7236 4.11003 39.9389 3.92609 40.0992 3.63049C40.2344 3.37758 40.3019 3.11646 40.3019 2.84712C40.3019 2.57779 40.2674 2.35773 40.1982 2.18693C40.1291 2.01285 40.0363 1.86012 39.9201 1.72874C39.8038 1.59736 39.6702 1.48569 39.5193 1.39372C39.3653 1.30175 39.2035 1.22621 39.0337 1.16709ZM36.3512 5.93623L36.2947 6.56193C36.2852 6.62762 36.2569 6.68182 36.2098 6.72452C36.1626 6.76722 36.1045 6.78857 36.0354 6.78857C35.9662 6.78857 35.9096 6.75901 35.8656 6.69988C35.8216 6.63748 35.7996 6.57836 35.7996 6.52252V6.49296C35.7996 6.48967 35.8044 6.45519 35.8138 6.3895C35.8201 6.3238 35.8279 6.23676 35.8374 6.12837C35.8656 5.87218 35.8798 5.63898 35.8798 5.42877C35.8798 5.04119 35.8672 4.78664 35.8421 4.66511C35.8138 4.5403 35.7996 4.45326 35.7996 4.40399C35.7996 4.35473 35.8264 4.30546 35.8798 4.25619C35.9332 4.20692 35.9914 4.18229 36.0542 4.18229H36.8227C36.4927 3.98522 36.2318 3.74216 36.0401 3.45312C35.8484 3.1608 35.7525 2.84548 35.7525 2.50718C35.7525 2.16558 35.8201 1.87162 35.9552 1.62528C36.0904 1.37894 36.2664 1.17201 36.4832 1.0045C36.9107 0.669478 37.423 0.490471 38.0201 0.467479C38.743 0.467479 39.3763 0.662909 39.9201 1.05377C40.2846 1.31653 40.5408 1.65812 40.6885 2.07854C40.7639 2.28875 40.8017 2.51867 40.8017 2.7683C40.8017 3.32995 40.6445 3.80128 40.3302 4.18229H42.5507C42.5664 4.01149 42.5806 3.87518 42.5931 3.77336C42.6151 3.58943 42.6969 3.49746 42.8383 3.49746C42.92 3.49746 42.9829 3.52702 43.0269 3.58614C43.0709 3.64527 43.0929 3.70275 43.0929 3.75858V3.78814C43.0332 4.24798 43.0033 4.68975 43.0033 5.11345C43.0033 5.53716 43.0457 5.96743 43.1306 6.40428V6.44369C43.1306 6.51923 43.1054 6.58164 43.0552 6.63091C43.008 6.68018 42.953 6.70481 42.8902 6.70481C42.755 6.70481 42.6733 6.63419 42.645 6.49296C42.6073 6.29589 42.579 6.11031 42.5601 5.93623H36.3512Z" fill="#E74802"/>
<path d="M11.8017 10.4504C11.8017 11.2072 11.6925 11.9159 11.4741 12.5766C11.2557 13.2372 10.9397 13.8138 10.5259 14.3063C10.1121 14.7928 9.60632 15.1772 9.00862 15.4594C8.41092 15.7417 7.73276 15.8829 6.97414 15.8829C6.58908 15.8829 6.22126 15.8228 5.87069 15.7027C5.52586 15.5826 5.20689 15.4144 4.91379 15.1982C4.62644 14.976 4.37069 14.7117 4.14655 14.4054C3.92816 14.0991 3.75575 13.7567 3.62931 13.3784L2.3362 15.6396H1.21552V1.4054H4.12931V6.47747C4.47414 5.97897 4.88793 5.6126 5.37069 5.37837C5.85919 5.14413 6.39368 5.02702 6.97414 5.02702C7.73276 5.02702 8.41092 5.16816 9.00862 5.45044C9.60632 5.73272 10.1121 6.11711 10.5259 6.60359C10.9397 7.09008 11.2557 7.66365 11.4741 8.32431C11.6925 8.98498 11.8017 9.69368 11.8017 10.4504ZM8.84483 10.4504C8.84483 10.1862 8.83046 9.9069 8.80172 9.6126C8.77873 9.3123 8.73563 9.01501 8.67241 8.72071C8.60919 8.42642 8.52011 8.14413 8.40517 7.87386C8.29598 7.60359 8.15517 7.36636 7.98276 7.16215C7.81034 6.95194 7.60345 6.78678 7.36207 6.66666C7.12069 6.54053 6.83621 6.47747 6.50862 6.47747C6.20977 6.47747 5.94253 6.54353 5.70689 6.67567C5.47701 6.80179 5.27299 6.97296 5.09483 7.18918C4.92241 7.4054 4.77586 7.65164 4.65517 7.92792C4.53448 8.20419 4.43678 8.48948 4.36207 8.78377C4.28735 9.07807 4.23276 9.36936 4.19827 9.65765C4.16379 9.94594 4.14655 10.2102 4.14655 10.4504C4.14655 10.7207 4.15804 11.006 4.18103 11.3063C4.20977 11.6066 4.25575 11.9069 4.31896 12.2072C4.38218 12.5015 4.46839 12.7838 4.57758 13.054C4.69253 13.3183 4.83621 13.5555 5.00862 13.7658C5.18678 13.97 5.39655 14.1321 5.63793 14.2522C5.88506 14.3724 6.17529 14.4324 6.50862 14.4324C6.83046 14.4324 7.11207 14.3724 7.35345 14.2522C7.60057 14.1261 7.81034 13.961 7.98276 13.7567C8.15517 13.5465 8.29598 13.3063 8.40517 13.036C8.52011 12.7598 8.60919 12.4745 8.67241 12.1802C8.73563 11.8859 8.77873 11.5916 8.80172 11.2973C8.83046 10.997 8.84483 10.7147 8.84483 10.4504Z" fill="black" fill-opacity="0.75"/>
<path d="M22.3707 5.23422L18.75 14.3874C18.3362 15.4324 17.8736 16.4655 17.3621 17.4865C16.8563 18.5135 16.3075 19.4985 15.7155 20.4414L14.5776 19.7207C14.7213 19.4504 14.8908 19.1381 15.0862 18.7838C15.2816 18.4294 15.4741 18.0631 15.6638 17.6847C15.8534 17.3063 16.0287 16.9309 16.1897 16.5585C16.3506 16.1922 16.4741 15.8558 16.5603 15.5495L12.2069 5.23422H15.1207L18.0776 12.2703L20.3534 5.23422H22.3707Z" fill="black" fill-opacity="0.75"/>
</g>
<defs>
<clipPath id="clip0_19_32">
<rect width="48" height="48" fill="white"/>
</clipPath>
</defs>
</svg>
